<?xml version="1.0" standalone="no"?>
<svg xmlns:xlink="http://www.w3.org/1999/xlink" id="wave" style="transform:rotate(0deg); transition: 0.3s" viewBox="0 0 1440 490" version="1.1" xmlns="http://www.w3.org/2000/svg"><defs><linearGradient id="sw-gradient-0" x1="0" x2="0" y1="1" y2="0"><stop stop-color="rgba(255, 255, 255, 1)" offset="0%"/><stop stop-color="rgba(255, 255, 255, 1)" offset="100%"/></linearGradient></defs><path style="transform:translate(0, 0px); opacity:1" fill="url(#sw-gradient-0)" d="M0,147L80,122.5C160,98,320,49,480,98C640,147,800,294,960,302.2C1120,310,1280,180,1440,122.5C1600,65,1760,82,1920,130.7C2080,180,2240,261,2400,294C2560,327,2720,310,2880,302.2C3040,294,3200,294,3360,302.2C3520,310,3680,327,3840,334.8C4000,343,4160,343,4320,334.8C4480,327,4640,310,4800,310.3C4960,310,5120,327,5280,285.8C5440,245,5600,147,5760,138.8C5920,131,6080,212,6240,236.8C6400,261,6560,229,6720,212.3C6880,196,7040,196,7200,236.8C7360,278,7520,359,7680,367.5C7840,376,8000,310,8160,261.3C8320,212,8480,180,8640,171.5C8800,163,8960,180,9120,212.3C9280,245,9440,294,9600,261.3C9760,229,9920,114,10080,89.8C10240,65,10400,131,10560,204.2C10720,278,10880,359,11040,392C11200,425,11360,408,11440,400.2L11520,392L11520,490L11440,490C11360,490,11200,490,11040,490C10880,490,10720,490,10560,490C10400,490,10240,490,10080,490C9920,490,9760,490,9600,490C9440,490,9280,490,9120,490C8960,490,8800,490,8640,490C8480,490,8320,490,8160,490C8000,490,7840,490,7680,490C7520,490,7360,490,7200,490C7040,490,6880,490,6720,490C6560,490,6400,490,6240,490C6080,490,5920,490,5760,490C5600,490,5440,490,5280,490C5120,490,4960,490,4800,490C4640,490,4480,490,4320,490C4160,490,4000,490,3840,490C3680,490,3520,490,3360,490C3200,490,3040,490,2880,490C2720,490,2560,490,2400,490C2240,490,2080,490,1920,490C1760,490,1600,490,1440,490C1280,490,1120,490,960,490C800,490,640,490,480,490C320,490,160,490,80,490L0,490Z"/></svg>