<?xml version="1.0" standalone="no"?>
<svg xmlns:xlink="http://www.w3.org/1999/xlink" id="wave" style="transform:rotate(0deg); transition: 0.3s" viewBox="0 0 1440 490" version="1.1" xmlns="http://www.w3.org/2000/svg"><defs><linearGradient id="sw-gradient-0" x1="0" x2="0" y1="1" y2="0"><stop stop-color="rgba(255, 255, 255, 1)" offset="0%"/><stop stop-color="rgba(255, 255, 255, 1)" offset="100%"/></linearGradient></defs><path style="transform:translate(0, 0px); opacity:1" fill="url(#sw-gradient-0)" d="M0,343L240,285.8C480,229,960,114,1440,81.7C1920,49,2400,98,2880,171.5C3360,245,3840,343,4320,326.7C4800,310,5280,180,5760,106.2C6240,33,6720,16,7200,40.8C7680,65,8160,131,8640,147C9120,163,9600,131,10080,147C10560,163,11040,229,11520,212.3C12000,196,12480,98,12960,89.8C13440,82,13920,163,14400,204.2C14880,245,15360,245,15840,204.2C16320,163,16800,82,17280,106.2C17760,131,18240,261,18720,294C19200,327,19680,261,20160,236.8C20640,212,21120,229,21600,196C22080,163,22560,82,23040,49C23520,16,24000,33,24480,89.8C24960,147,25440,245,25920,310.3C26400,376,26880,408,27360,383.8C27840,359,28320,278,28800,269.5C29280,261,29760,327,30240,310.3C30720,294,31200,196,31680,130.7C32160,65,32640,33,33120,40.8C33600,49,34080,98,34320,122.5L34560,147L34560,490L34320,490C34080,490,33600,490,33120,490C32640,490,32160,490,31680,490C31200,490,30720,490,30240,490C29760,490,29280,490,28800,490C28320,490,27840,490,27360,490C26880,490,26400,490,25920,490C25440,490,24960,490,24480,490C24000,490,23520,490,23040,490C22560,490,22080,490,21600,490C21120,490,20640,490,20160,490C19680,490,19200,490,18720,490C18240,490,17760,490,17280,490C16800,490,16320,490,15840,490C15360,490,14880,490,14400,490C13920,490,13440,490,12960,490C12480,490,12000,490,11520,490C11040,490,10560,490,10080,490C9600,490,9120,490,8640,490C8160,490,7680,490,7200,490C6720,490,6240,490,5760,490C5280,490,4800,490,4320,490C3840,490,3360,490,2880,490C2400,490,1920,490,1440,490C960,490,480,490,240,490L0,490Z"/></svg>