<?xml version="1.0" standalone="no"?>
<svg xmlns:xlink="http://www.w3.org/1999/xlink" id="wave" style="transform:rotate(0deg); transition: 0.3s" viewBox="0 0 1440 490" version="1.1" xmlns="http://www.w3.org/2000/svg"><defs><linearGradient id="sw-gradient-0" x1="0" x2="0" y1="1" y2="0"><stop stop-color="rgba(255, 255, 255, 1)" offset="0%"/><stop stop-color="rgba(255, 255, 255, 1)" offset="100%"/></linearGradient></defs><path style="transform:translate(0, 0px); opacity:1" fill="url(#sw-gradient-0)" d="M0,0L120,65.3C240,131,480,261,720,326.7C960,392,1200,392,1440,375.7C1680,359,1920,327,2160,302.2C2400,278,2640,261,2880,285.8C3120,310,3360,376,3600,400.2C3840,425,4080,408,4320,334.8C4560,261,4800,131,5040,81.7C5280,33,5520,65,5760,106.2C6000,147,6240,196,6480,187.8C6720,180,6960,114,7200,89.8C7440,65,7680,82,7920,147C8160,212,8400,327,8640,334.8C8880,343,9120,245,9360,212.3C9600,180,9840,212,10080,196C10320,180,10560,114,10800,98C11040,82,11280,114,11520,155.2C11760,196,12000,245,12240,245C12480,245,12720,196,12960,220.5C13200,245,13440,343,13680,334.8C13920,327,14160,212,14400,171.5C14640,131,14880,163,15120,220.5C15360,278,15600,359,15840,400.2C16080,441,16320,441,16560,367.5C16800,294,17040,147,17160,73.5L17280,0L17280,490L17160,490C17040,490,16800,490,16560,490C16320,490,16080,490,15840,490C15600,490,15360,490,15120,490C14880,490,14640,490,14400,490C14160,490,13920,490,13680,490C13440,490,13200,490,12960,490C12720,490,12480,490,12240,490C12000,490,11760,490,11520,490C11280,490,11040,490,10800,490C10560,490,10320,490,10080,490C9840,490,9600,490,9360,490C9120,490,8880,490,8640,490C8400,490,8160,490,7920,490C7680,490,7440,490,7200,490C6960,490,6720,490,6480,490C6240,490,6000,490,5760,490C5520,490,5280,490,5040,490C4800,490,4560,490,4320,490C4080,490,3840,490,3600,490C3360,490,3120,490,2880,490C2640,490,2400,490,2160,490C1920,490,1680,490,1440,490C1200,490,960,490,720,490C480,490,240,490,120,490L0,490Z"/></svg>